# xmcd
#
# Track frame offsets:
#	150
#	15290
#	30906
#	49696
#	65298
#	78131
#	91465
#	105285
#	121100
#	136066
#	147814
#
# Disc length: 2194 seconds
#
# Revision: 0
# Processed by: cddbd v1.5.1PL0 Copyright (c) Steve Scherf et al.
# Submitted via: EasyCDDAExtractor 8.0.1.1
#
DISCID=7108900b
DTITLE=Various Artist - Bonedog's Beach Bash Vol Ii
DYEAR=2005
DGENRE=blues
TTITLE0=Leon Daniels - Mark It Down
TTITLE1=James Hilton - My Soul
TTITLE2=Bobby Wayne and The Restorators Of Soul - Doin' The Bonedog
TTITLE3=Leon Daniels - High Blood Pressure
TTITLE4=Mystic Knights - It's Not The First Boat I Missed
TTITLE5=Eugene Morgan - Don't Take My Whiskey
TTITLE6=James Hilton - What About Your Daughter
TTITLE7=David Avery - So Fine
TTITLE8=Legendary Jackie Graham - Half Pint A Whiskey
TTITLE9=Tube City Dukes and Robbie Klein - Rib Joint
TTITLE10=Leon Daniels - One Whole Year Baby
EXTD=
EXTT0=
EXTT1=
EXTT2=
EXTT3=
EXTT4=
EXTT5=
EXTT6=
EXTT7=
EXTT8=
EXTT9=
EXTT10=
PLAYORDER=
